<?xml version="1.0" encoding="UTF-8"?><svg id="_クレーン" xmlns="http://www.w3.org/2000/svg" viewBox="0 0 500 500"><defs><style>.cls-1{fill:#fff;}.cls-2{fill:#fcfcfc;}</style></defs><path class="cls-1" d="M450,15c19.3,0,35,15.7,35,35V450c0,19.3-15.7,35-35,35H50c-19.3,0-35-15.7-35-35V50c0-19.3,15.7-35,35-35H450m0-15H50C22.5,0,0,22.5,0,50V450c0,27.5,22.5,50,50,50H450c27.5,0,50-22.5,50-50V50c0-27.5-22.5-50-50-50h0Z"/><g><g><path class="cls-1" d="M209.78,245.34l-3.29,6.33-.14,.26c-7.65,13-21.77,21.07-36.86,21.07-7.57,0-15.05-2.04-21.61-5.9-9.84-5.79-16.84-15.05-19.7-26.1-.13-.47-.23-.94-.34-1.42l-5.45,41.81h92.12l-4.73-36.05Z"/><path class="cls-1" d="M215.23,93.75l-77.69,117.71c-10.39,17.66-4.49,40.41,13.18,50.8,17.67,10.39,40.41,4.49,50.8-13.18l52.73-101.37-29.07-27.63c-7.58-7.82-10.16-16.55-9.96-26.32Zm-32.94,144.02c-4.14,7.05-13.22,9.4-20.26,5.26-7.05-4.15-9.4-13.22-5.26-20.27,4.14-7.05,13.22-9.4,20.26-5.26,7.05,4.15,9.4,13.22,5.26,20.26Z"/><path class="cls-1" d="M217.09,286.43H120.46c-6.58,0-11.91,5.33-11.91,11.91v35.7h120.44v-35.7c0-6.58-5.33-11.91-11.91-11.91Z"/><path class="cls-1" d="M341.05,160.95c3.81,0,7.47,.67,10.87,1.89l-75.34-90.07c-12.02-13.06-32.34-13.89-45.39-1.88-13.06,12.01-13.89,32.34-1.88,45.39l79.56,75.58c.68-17.16,14.85-30.92,32.18-30.92Zm-79.82-57.41c-4.97,4.58-12.72,4.25-17.3-.72-4.59-4.97-4.26-12.72,.71-17.3,4.97-4.59,12.72-4.26,17.31,.71,4.58,4.97,4.26,12.72-.72,17.31Z"/><polygon class="cls-1" points="331.31 256.18 341.69 267.86 352.08 256.18 352.08 236.94 331.31 236.94 331.31 256.18"/><path class="cls-1" d="M341.05,166.55c-14.7,0-26.61,11.91-26.61,26.61v38.29h53.22v-38.29c0-14.7-11.91-26.61-26.61-26.61Zm0,36.18c-5.74,0-10.39-4.65-10.39-10.39s4.65-10.39,10.39-10.39,10.39,4.65,10.39,10.39-4.66,10.39-10.39,10.39Z"/></g><path class="cls-1" d="M287.03,323.48h109.67c1.27,0,2.3,1.03,2.3,2.3v7.81h-114.27v-7.81c0-1.27,1.03-2.3,2.3-2.3Z"/><rect class="cls-1" x="314.08" y="272.92" width="54.61" height="46.52" rx="3" ry="3"/></g><g><path class="cls-2" d="M147.28,366.06c-.74-1.01-1.1-1.93-1.1-2.94,0-2.12,2.21-4.14,4.51-4.14,1.29,0,2.67,.83,3.59,2.12l21.99,32.01,21.99-32.01c.92-1.29,2.3-2.12,3.59-2.12,2.39,0,4.51,2.02,4.51,4.14,0,1.01-.37,1.93-1.1,2.94l-24.84,34.13v32.02c0,2.02-1.75,3.5-4.14,3.5s-4.14-1.47-4.14-3.5v-32.02l-24.84-34.13Z"/><path class="cls-2" d="M240.02,360.08c10.49,0,18.77,2.12,25.39,6.53,9.75,6.44,15,17.2,15,30.63,0,23.74-15,37.35-41.03,37.35h-12.24c-6.44,0-9.75-3.31-9.75-9.94v-54.65c0-6.62,3.31-9.94,9.75-9.94h12.88Zm-14.26,64.49c0,1.66,.92,2.58,2.58,2.58h10.49c20.42,0,32.47-11.04,32.47-29.81s-11.32-29.81-31.92-29.81h-11.04c-1.75,0-2.58,.83-2.58,2.58v54.46Z"/><path class="cls-2" d="M297.15,432.48c-.74,2.02-2.3,3.22-4.14,3.22-2.58,0-4.6-1.66-4.6-3.86,0-.74,.18-1.47,.46-2.3l26.49-66.6c1.01-2.58,3.22-4.05,5.89-4.05s4.88,1.47,5.89,4.05l26.4,66.6c.37,.92,.55,1.56,.55,2.3,0,2.02-2.12,3.86-4.6,3.86-1.84,0-3.4-1.2-4.23-3.22l-7.73-19.87h-32.75l-7.64,19.87Zm30.17-47.75c-2.3-6.07-5.15-14.35-5.89-16.74h-.37c-.92,3.31-3.31,10.12-5.89,16.74l-7.91,20.79h27.87l-7.82-20.79Z"/></g></svg>